<svg width="141" height="40" viewBox="0 0 141 40" fill="none" xmlns="http://www.w3.org/2000/svg">
<path d="M73.1698 29.214C73.1698 28.3914 73.1326 27.8279 73.0583 27.5236C72.9839 27.211 72.8476 27.0547 72.6494 27.0547C72.5255 27.0547 72.4139 27.0958 72.3148 27.1781C72.3313 27.3261 72.3561 27.5236 72.3892 27.7703C72.4222 28.0171 72.4387 28.5436 72.4387 29.3497V30.1518C72.4387 30.7111 72.4263 31.1183 72.4015 31.3733C72.3768 31.6283 72.3561 31.8463 72.3396 32.0273C72.3313 32.126 72.3231 32.2247 72.3148 32.3234C72.4139 32.4057 72.5255 32.4468 72.6494 32.4468C72.8476 32.4468 72.9839 32.2946 73.0583 31.9903C73.1326 31.6777 73.1698 31.1101 73.1698 30.2875V29.214ZM68.5478 37.7402C67.6309 37.7402 66.9204 37.4976 66.4165 37.0122C65.9209 36.5269 65.673 35.7948 65.673 34.8159V23.7108C65.673 23.0856 66.3009 22.5592 67.5565 22.1314C68.8204 21.6955 70.2289 21.4775 71.782 21.4775C74.5163 21.4775 76.6518 22.1355 78.1883 23.4517C79.8405 24.8666 80.6666 26.9765 80.6666 29.7816C80.6666 32.307 79.8653 34.2648 78.2626 35.6549C76.6683 37.0451 74.475 37.7402 71.6828 37.7402H68.5478Z" fill="white"/>
<path d="M88.2625 28.9549C88.2955 28.9796 88.3905 28.9919 88.5475 28.9919C88.7044 28.9919 88.8242 28.9302 88.9068 28.8068C88.9894 28.6834 89.0307 28.4819 89.0307 28.2022V27.758C89.0307 27.4619 88.9936 27.2521 88.9192 27.1287C88.8531 26.9971 88.7375 26.9313 88.5723 26.9313C88.4153 26.9313 88.3079 26.9477 88.2501 26.9806C88.2583 27.0218 88.2625 27.0917 88.2625 27.1904V28.9549ZM94.6564 31.7682L96.8001 33.9522C96.6514 35.2354 96.2425 36.2225 95.5733 36.9135C94.9125 37.6045 93.9955 37.95 92.8225 37.95C91.9386 37.95 91.1703 37.7402 90.5177 37.3207C89.6833 36.7942 89.0596 35.9552 88.6466 34.8036L88.2005 33.5943C87.8536 33.5861 87.4157 33.5409 86.887 33.4586C86.8209 33.5244 86.7879 33.6149 86.7879 33.7301C86.7879 33.9522 87.1225 34.0838 87.7916 34.1249L88.4979 35.9017V36.9505C87.5479 37.6168 86.3294 37.95 84.8424 37.95C83.7768 37.95 82.9259 37.732 82.2898 37.296C81.6537 36.8601 81.3357 36.2267 81.3357 35.3958V23.6738C81.3357 23.3119 81.6703 22.9623 82.3394 22.625C83.0085 22.2795 83.8842 22.0039 84.9664 21.7983C86.0485 21.5844 87.1307 21.4775 88.2129 21.4775C90.6912 21.4775 92.6283 21.9834 94.0244 22.9952C95.4949 24.0563 96.2301 25.5493 96.2301 27.4742C96.2301 28.5765 95.9162 29.5225 95.2884 30.3122C94.6688 31.0936 93.884 31.6366 92.934 31.9409C92.934 32.2041 93.091 32.3358 93.4049 32.3358C93.727 32.3358 94.1442 32.1466 94.6564 31.7682Z" fill="white"/>
<path d="M102.847 21.8106H109.997C110.236 22.2055 110.414 22.6373 110.53 23.1062C110.645 23.5669 110.703 23.9823 110.703 24.3524C110.703 25.1833 110.538 25.8084 110.208 26.228C109.885 26.6475 109.431 26.8573 108.844 26.8573H103.851C103.545 26.8573 103.392 26.9765 103.392 27.2151V27.3138C103.392 27.3632 103.401 27.3961 103.417 27.4125H109.34C109.489 27.6675 109.617 27.9883 109.724 28.375C109.823 28.7945 109.873 29.1688 109.873 29.4978C109.873 30.4767 109.691 31.2417 109.328 31.7928H106.639C105.383 31.7928 104.532 31.8422 104.086 31.9409C103.64 32.0314 103.363 32.1095 103.256 32.1754C103.149 32.2494 103.095 32.344 103.095 32.4592C103.095 32.5743 103.153 32.6648 103.268 32.7306C103.698 32.5908 104.148 32.4921 104.619 32.4345C105.239 32.3769 105.912 32.3481 106.639 32.3481H110.121C110.625 33.0555 110.877 33.9069 110.877 34.9023C110.877 35.4616 110.806 35.9963 110.666 36.5063C110.526 37.0163 110.315 37.4276 110.034 37.7402H100.753C99.7286 37.7402 98.9066 37.4934 98.2871 36.9999C97.6097 36.4734 97.271 35.7002 97.271 34.6802V22.9458C97.271 22.551 97.7253 22.2631 98.634 22.0821C99.5427 21.9011 100.947 21.8106 102.847 21.8106Z" fill="white"/>
<path d="M118.212 33.2365C118.485 33.1872 118.621 33.0514 118.621 32.8293C118.621 32.599 118.547 32.344 118.398 32.0643C118.258 31.7764 118.047 31.5049 117.766 31.2499C117.031 30.5919 116.036 30.2628 114.78 30.2628C114.16 30.2628 113.582 30.3656 113.045 30.5713C112.475 30.2834 112.021 29.8268 111.682 29.2017C111.343 28.5765 111.174 27.902 111.174 27.1781C111.174 25.2861 111.967 23.826 113.553 22.7977C114.916 21.9176 116.597 21.4775 118.596 21.4775C120.083 21.4775 121.335 21.6379 122.351 21.9587C123.367 22.2713 124.197 22.6744 124.842 23.1679C125.032 23.7108 125.127 24.2743 125.127 24.8583C125.127 25.4424 125.048 25.973 124.891 26.4501C124.734 26.9272 124.507 27.3097 124.21 27.5976C123.929 27.3919 123.421 27.1822 122.686 26.9683C121.95 26.7544 121.281 26.6475 120.678 26.6475C120.075 26.6475 119.67 26.6845 119.464 26.7585C119.266 26.8326 119.166 26.9477 119.166 27.104C119.166 27.1781 119.179 27.248 119.204 27.3138C119.493 27.2398 119.865 27.2028 120.319 27.2028C121.93 27.2028 123.243 27.5811 124.259 28.3379C125.457 29.2428 126.056 30.6001 126.056 32.4098C126.056 34.0056 125.408 35.33 124.111 36.3829C122.706 37.5099 120.819 38.0734 118.448 38.0734C117.143 38.0734 116.011 37.9747 115.053 37.7772C114.094 37.588 113.161 37.2508 112.252 36.7654C111.633 35.8688 111.323 34.9599 111.323 34.0385C111.323 33.109 111.641 32.3399 112.277 31.7312C112.913 31.1224 113.694 30.8181 114.619 30.8181C115.552 30.8181 116.312 31.0073 116.899 31.3857C117.494 31.7641 117.931 32.381 118.212 33.2365Z" fill="white"/>
<path d="M133.156 33.2365C133.429 33.1872 133.565 33.0514 133.565 32.8293C133.565 32.599 133.491 32.344 133.342 32.0643C133.202 31.7764 132.991 31.5049 132.71 31.2499C131.975 30.5919 130.98 30.2628 129.724 30.2628C129.104 30.2628 128.526 30.3656 127.989 30.5713C127.419 30.2834 126.965 29.8268 126.626 29.2017C126.287 28.5765 126.118 27.902 126.118 27.1781C126.118 25.2861 126.911 23.826 128.497 22.7977C129.86 21.9176 131.541 21.4775 133.54 21.4775C135.027 21.4775 136.279 21.6379 137.295 21.9587C138.311 22.2713 139.141 22.6744 139.786 23.1679C139.976 23.7108 140.071 24.2743 140.071 24.8583C140.071 25.4424 139.992 25.973 139.835 26.4501C139.678 26.9272 139.451 27.3097 139.154 27.5976C138.873 27.3919 138.365 27.1822 137.63 26.9683C136.894 26.7544 136.225 26.6475 135.622 26.6475C135.019 26.6475 134.614 26.6845 134.408 26.7585C134.21 26.8326 134.11 26.9477 134.11 27.104C134.11 27.1781 134.123 27.248 134.148 27.3138C134.437 27.2398 134.808 27.2028 135.263 27.2028C136.874 27.2028 138.187 27.5811 139.203 28.3379C140.401 29.2428 141 30.6001 141 32.4098C141 34.0056 140.352 35.33 139.055 36.3829C137.65 37.5099 135.763 38.0734 133.392 38.0734C132.087 38.0734 130.955 37.9747 129.997 37.7772C129.038 37.588 128.105 37.2508 127.196 36.7654C126.576 35.8688 126.267 34.9599 126.267 34.0385C126.267 33.109 126.585 32.3399 127.221 31.7312C127.857 31.1224 128.638 30.8181 129.563 30.8181C130.496 30.8181 131.256 31.0073 131.843 31.3857C132.438 31.7641 132.875 32.381 133.156 33.2365Z" fill="white"/>
<path d="M46.5435 28.1239V30.9822C46.6203 31.0584 46.7464 31.0965 46.9219 31.0965C47.0974 31.0965 47.2235 31.0366 47.3003 30.9169C47.3771 30.7971 47.4155 30.5902 47.4155 30.2962V27.9605C47.4155 26.9152 47.3716 26.2237 47.2838 25.8862C47.1961 25.5377 47.0316 25.3635 46.7903 25.3635C46.6367 25.3635 46.5051 25.418 46.3954 25.5269C46.4942 26.6049 46.5435 27.4705 46.5435 28.1239ZM40.3905 35.3596C38.5917 33.6391 37.6923 31.3089 37.6923 28.3689C37.6923 25.418 38.5369 23.0932 40.2259 21.3945C41.926 19.6849 44.1525 18.8302 46.9054 18.8302C49.6584 18.8302 51.8849 19.7176 53.585 21.4925C55.274 23.2674 56.1186 25.5813 56.1186 28.4342C56.1186 31.2762 55.3015 33.5357 53.6672 35.2125C52.044 36.8894 49.8339 37.7279 47.0371 37.7279C44.2402 37.7279 42.0247 36.9384 40.3905 35.3596Z" fill="white"/>
<path d="M22.9559 15.5806C18.977 16.251 17.5805 13.4761 21.3586 12.1528C21.6772 12.0412 21.9772 11.935 22.2533 11.8328C23.3951 11.41 23.6127 10.2002 22.6059 9.49689C22.0564 9.09073 21.4081 8.7783 20.661 8.55959C19.928 8.32843 19.1167 8.19197 18.2272 8.1502C16.3113 8.06023 14.6626 8.42219 13.2812 9.23608C11.9134 10.0506 10.8486 11.2663 10.0868 12.8831C9.33877 14.5006 8.92931 16.475 8.85847 18.8062C8.78684 21.1637 9.06083 23.1964 9.68046 24.9044C10.3001 26.6123 11.2601 27.9427 12.5605 28.8957C13.8608 29.8486 15.4963 30.3713 17.4669 30.4639C19.2049 30.5455 20.6561 30.371 21.8203 29.9404C22.9983 29.5104 23.8881 28.8636 24.49 28C24.5555 27.906 24.6176 27.81 24.6764 27.7119C25.4676 26.3929 26.9077 25.2361 28.484 25.602L28.6857 25.6488C30.4514 26.0587 32.0139 24.5773 31.5871 22.898C31.1317 21.1063 28.7861 20.4516 27.4495 21.7429L23.4258 25.6303C22.2283 26.7872 20.2637 26.8255 18.9605 25.7173C18.2293 25.0954 17.8217 24.2015 17.8497 23.281L17.8738 22.4851C17.955 19.8144 20.8258 18.111 23.4263 19.1905C24.4976 19.6352 25.7077 19.6232 26.7461 19.1575L27.7375 18.7129C31.3531 17.0915 35.7087 19.0199 36.8167 22.7325L36.9877 23.3056C37.1663 23.904 37.2691 24.5232 37.2201 25.1385C36.9588 28.4215 35.3477 30.3868 33.7825 32.7056C32.0889 35.223 29.7977 37.109 26.9091 38.3636C24.0345 39.6058 20.7635 40.1408 17.0959 39.9685C13.0041 39.7764 12.6816 36.0185 9.63939 34.2099C6.59715 32.4014 3.05923 33.1678 1.41477 30.0083C-0.216009 26.8495 0.665512 26.1938 0.794452 21.9503C0.895534 18.6236 -0.729216 12.8145 0.402522 10.2969C1.54795 7.78003 5.4891 6.88369 7.43134 5.20425C9.37398 3.51173 7.84622 1.91797 10.3507 1.13058C12.8555 0.330099 15.099 -0.109504 17.9318 0.0235193C20.4224 0.140477 22.505 2.56436 24.6191 3.34566C26.7474 4.11451 29.1715 1.79143 30.7759 3.11278C32.3944 4.42166 28.7642 7.09534 29.7255 8.83243C29.9447 9.22854 30.3989 9.57237 30.9713 9.89119C34.2614 11.7236 33.5478 13.796 29.8475 14.4195L22.9559 15.5806Z" fill="white"/>
</svg>
