<svg width="342" height="98" viewBox="0 0 342 98" fill="none" xmlns="http://www.w3.org/2000/svg">
<path d="M212.86 70.093C212.941 70.1535 213.174 70.1837 213.558 70.1837C213.942 70.1837 214.236 70.0326 214.438 69.7303C214.64 69.4279 214.741 68.9342 214.741 68.249V67.1607C214.741 66.4351 214.65 65.9212 214.468 65.6189C214.306 65.2964 214.023 65.1352 213.619 65.1352C213.234 65.1352 212.971 65.1755 212.83 65.2561C212.85 65.3569 212.86 65.5282 212.86 65.7701V70.093ZM228.517 76.9856L233.766 82.3364C233.402 85.4803 232.401 87.8988 230.762 89.5917C229.144 91.2846 226.899 92.131 224.026 92.131C221.862 92.131 219.981 91.6171 218.383 90.5893C216.339 89.2994 214.812 87.2438 213.801 84.4223L212.708 81.4597C211.859 81.4395 210.787 81.3287 209.492 81.1271C209.33 81.2884 209.249 81.5101 209.249 81.7922C209.249 82.3364 210.068 82.6588 211.707 82.7596L213.437 87.1128V89.6824C211.11 91.3148 208.127 92.131 204.485 92.131C201.876 92.131 199.792 91.597 198.235 90.5288C196.677 89.4607 195.898 87.9088 195.898 85.8733V57.1544C195.898 56.2676 196.718 55.4111 198.356 54.5848C199.995 53.7383 202.139 53.0632 204.789 52.5593C207.439 52.0353 210.089 51.7733 212.739 51.7733C218.807 51.7733 223.551 53.0128 226.97 55.4917C230.57 58.0915 232.371 61.7494 232.371 66.4654C232.371 69.1659 231.602 71.4836 230.065 73.4184C228.547 75.333 226.626 76.6631 224.299 77.4088C224.299 78.0537 224.684 78.3762 225.452 78.3762C226.241 78.3762 227.263 77.9126 228.517 76.9856Z" fill="white"/>
<path d="M248.574 52.5896H266.082C266.668 53.5569 267.103 54.615 267.386 55.7638C267.67 56.8924 267.811 57.9101 267.811 58.817C267.811 60.8526 267.407 62.3842 266.598 63.4121C265.809 64.4399 264.696 64.9538 263.26 64.9538H251.032C250.283 64.9538 249.909 65.2461 249.909 65.8305V66.0724C249.909 66.1933 249.929 66.2739 249.97 66.3142H264.474C264.838 66.939 265.151 67.725 265.414 68.6722C265.657 69.7 265.778 70.617 265.778 71.4232C265.778 73.8214 265.333 75.6957 264.443 77.046H257.859C254.784 77.046 252.7 77.167 251.608 77.4088C250.516 77.6305 249.838 77.8219 249.575 77.9832C249.312 78.1646 249.181 78.3963 249.181 78.6785C249.181 78.9606 249.322 79.1823 249.605 79.3435C250.657 79.0009 251.76 78.7591 252.913 78.618C254.43 78.4769 256.079 78.4064 257.859 78.4064H266.385C267.619 80.1396 268.236 82.2255 268.236 84.6641C268.236 86.0346 268.064 87.3445 267.72 88.5941C267.376 89.8436 266.861 90.8513 266.173 91.6171H243.446C240.937 91.6171 238.925 91.0125 237.408 89.8033C235.749 88.5134 234.919 86.619 234.919 84.12V55.3708C234.919 54.4034 236.032 53.698 238.257 53.2546C240.482 52.8113 243.921 52.5896 248.574 52.5896Z" fill="white"/>
<path d="M286.199 80.583C286.867 80.4621 287.2 80.1295 287.2 79.5854C287.2 79.0211 287.018 78.3963 286.654 77.7111C286.31 77.0057 285.795 76.3407 285.107 75.7159C283.306 74.1036 280.869 73.2974 277.794 73.2974C276.277 73.2974 274.861 73.5494 273.546 74.0532C272.15 73.3478 271.038 72.2293 270.208 70.6976C269.379 69.166 268.964 67.5133 268.964 65.7398C268.964 61.1045 270.906 57.5272 274.79 55.008C278.128 52.8516 282.244 51.7733 287.14 51.7733C290.781 51.7733 293.846 52.1663 296.334 52.9523C298.822 53.7182 300.855 54.7057 302.433 55.9149C302.898 57.2451 303.131 58.6256 303.131 60.0565C303.131 61.4874 302.938 62.7873 302.554 63.9562C302.17 65.1251 301.613 66.0623 300.885 66.7677C300.197 66.2638 298.953 65.7499 297.153 65.2259C295.353 64.7019 293.714 64.4399 292.237 64.4399C290.761 64.4399 289.77 64.5306 289.264 64.712C288.778 64.8934 288.536 65.1755 288.536 65.5584C288.536 65.7398 288.566 65.9111 288.627 66.0724C289.335 65.891 290.245 65.8003 291.357 65.8003C295.302 65.8003 298.518 66.7274 301.007 68.5815C303.94 70.7984 305.406 74.1237 305.406 78.5575C305.406 82.4674 303.818 85.7121 300.642 88.2918C297.204 91.0528 292.581 92.4333 286.776 92.4333C283.58 92.4333 280.808 92.1915 278.462 91.7078C276.115 91.2443 273.829 90.418 271.604 89.2289C270.087 87.0322 269.328 84.8052 269.328 82.548C269.328 80.2706 270.107 78.3862 271.665 76.8949C273.222 75.4035 275.134 74.6578 277.4 74.6578C279.686 74.6578 281.547 75.1214 282.983 76.0484C284.439 76.9755 285.511 78.487 286.199 80.583Z" fill="white"/>
<path d="M322.793 80.583C323.46 80.4621 323.794 80.1295 323.794 79.5854C323.794 79.0211 323.612 78.3963 323.248 77.7111C322.904 77.0057 322.388 76.3407 321.701 75.7159C319.9 74.1036 317.463 73.2974 314.388 73.2974C312.871 73.2974 311.455 73.5494 310.14 74.0532C308.744 73.3478 307.632 72.2293 306.802 70.6976C305.973 69.166 305.558 67.5133 305.558 65.7398C305.558 61.1045 307.5 57.5272 311.384 55.008C314.722 52.8516 318.838 51.7733 323.733 51.7733C327.375 51.7733 330.439 52.1663 332.927 52.9523C335.416 53.7182 337.449 54.7057 339.026 55.9149C339.492 57.2451 339.724 58.6256 339.724 60.0565C339.724 61.4874 339.532 62.7873 339.148 63.9562C338.763 65.1251 338.207 66.0623 337.479 66.7677C336.791 66.2638 335.547 65.7499 333.747 65.2259C331.946 64.7019 330.308 64.4399 328.831 64.4399C327.354 64.4399 326.363 64.5306 325.858 64.712C325.372 64.8934 325.129 65.1755 325.129 65.5584C325.129 65.7398 325.16 65.9111 325.22 66.0724C325.928 65.891 326.839 65.8003 327.951 65.8003C331.896 65.8003 335.112 66.7274 337.6 68.5815C340.533 70.7984 342 74.1237 342 78.5575C342 82.4674 340.412 85.7121 337.236 88.2918C333.797 91.0528 329.175 92.4333 323.369 92.4333C320.173 92.4333 317.402 92.1915 315.055 91.7078C312.709 91.2443 310.423 90.418 308.198 89.2289C306.681 87.0322 305.922 84.8052 305.922 82.548C305.922 80.2706 306.701 78.3862 308.259 76.8949C309.816 75.4035 311.728 74.6578 313.993 74.6578C316.279 74.6578 318.14 75.1214 319.577 76.0484C321.033 76.9755 322.105 78.487 322.793 80.583Z" fill="white"/>
<path d="M113.972 68.9035V75.9064C114.16 76.0931 114.469 76.1865 114.899 76.1865C115.329 76.1865 115.638 76.0398 115.826 75.7463C116.014 75.4529 116.108 74.946 116.108 74.2257V68.5033C116.108 65.9422 116 64.2482 115.785 63.4212C115.57 62.5675 115.168 62.1406 114.577 62.1406C114.201 62.1406 113.878 62.274 113.61 62.5408C113.852 65.1819 113.972 67.3028 113.972 68.9035ZM98.9053 86.6309C94.5006 82.4158 92.2983 76.7067 92.2983 69.5037C92.2983 62.274 94.3663 56.5783 98.5024 52.4166C102.665 48.2281 108.117 46.1339 114.859 46.1339C121.6 46.1339 127.052 48.3082 131.215 52.6567C135.351 57.0051 137.419 62.6742 137.419 69.6638C137.419 76.6267 135.418 82.1623 131.416 86.2707C127.442 90.3791 122.03 92.4333 115.181 92.4333C108.332 92.4333 102.907 90.4992 98.9053 86.6309Z" fill="white"/>
<path d="M56.2128 38.1725C46.4695 39.815 43.0499 33.0164 52.3015 29.7743C53.0816 29.501 53.8162 29.2407 54.4924 28.9903C57.2882 27.9546 57.8212 24.9904 55.3558 23.2674C54.0102 22.2723 52.4226 21.5068 50.5932 20.971C48.7982 20.4047 46.8116 20.0703 44.6334 19.968C39.942 19.7476 35.9048 20.6344 32.522 22.6284C29.1726 24.624 26.5653 27.6024 24.6999 31.5636C22.8681 35.5264 21.8655 40.3636 21.692 46.0753C21.5166 51.8511 22.1875 56.8313 23.7048 61.0157C25.2221 65.2001 27.5729 68.4596 30.7571 70.7943C33.9414 73.129 37.9463 74.4098 42.7718 74.6365C47.0277 74.8364 50.5811 74.4089 53.432 73.3539C56.3165 72.3005 58.4956 70.7158 59.9693 68.6C60.1297 68.3697 60.2819 68.1344 60.4259 67.8942C62.3632 64.6627 65.8898 61.8285 69.7495 62.7249L70.2435 62.8396C74.5673 63.8439 78.3934 60.2144 77.3482 56.1001C76.2332 51.7105 70.4895 50.1063 67.2163 53.2702L57.3633 62.7941C54.431 65.6286 49.6203 65.7224 46.4292 63.0073C44.6386 61.4838 43.6405 59.2938 43.709 57.0385L43.7682 55.0884C43.9669 48.5453 50.9968 44.3719 57.3646 47.0167C59.9879 48.1062 62.9512 48.0768 65.494 46.9359L67.9217 45.8466C76.7753 41.8743 87.4409 46.5987 90.1541 55.6945L90.5729 57.0987C91.0102 58.5647 91.262 60.082 91.142 61.5892C90.502 69.6328 86.5568 74.4478 82.7242 80.1286C78.5769 86.2963 72.9666 90.917 65.8931 93.9909C58.8541 97.0342 50.8441 98.3449 41.8633 97.9229C31.8436 97.4522 31.0539 88.2453 23.6043 83.8143C16.1546 79.3834 7.49123 81.261 3.46439 73.5204C-0.528947 65.7813 1.62966 64.1747 1.9454 53.7782C2.19292 45.6278 -1.78565 31.3955 0.985668 25.2275C3.7905 19.0611 13.4413 16.865 18.1973 12.7504C22.9543 8.60373 19.2133 4.69903 25.3459 2.76993C31.4796 0.808743 36.9734 -0.268284 43.9101 0.0576223C50.009 0.344168 55.1086 6.28268 60.2856 8.19687C65.4971 10.0805 71.4332 4.38901 75.3619 7.6263C79.325 10.8331 70.4356 17.3836 72.7897 21.6394C73.3265 22.6099 74.4387 23.4523 75.8404 24.2334C83.8969 28.7228 82.1494 33.8002 73.0884 35.3277L56.2128 38.1725Z" fill="white"/>
<path d="M166.997 63.3842C166.997 60.5131 166.867 58.5464 166.609 57.4841C166.351 56.3931 165.877 55.8476 165.189 55.8476C164.758 55.8476 164.371 55.9911 164.027 56.2782C164.084 56.795 164.17 57.4841 164.285 58.3454C164.4 59.2067 164.457 61.0442 164.457 63.8579V66.6572C164.457 68.6096 164.414 70.0308 164.328 70.9208C164.242 71.8108 164.17 72.5717 164.113 73.2033C164.084 73.5479 164.055 73.8924 164.027 74.2369C164.371 74.524 164.758 74.6676 165.189 74.6676C165.877 74.6676 166.351 74.1364 166.609 73.0741C166.867 71.9831 166.997 70.0021 166.997 67.131V63.3842ZM150.941 93.1431C147.756 93.1431 145.288 92.2961 143.538 90.6022C141.816 88.9082 140.955 86.3529 140.955 82.9363V44.1766C140.955 41.9945 143.136 40.157 147.498 38.6641C151.888 37.1424 156.781 36.3815 162.176 36.3815C171.674 36.3815 179.092 38.6784 184.429 43.2722C190.169 48.2105 193.038 55.5748 193.038 65.3652C193.038 74.1795 190.255 81.0127 184.688 85.8648C179.149 90.717 171.531 93.1431 161.831 93.1431H150.941Z" fill="white"/>
</svg>
